<?xml version="1.0" encoding="UTF-8"?>
<svg width="144px" height="58px" viewBox="0 0 144 58" version="1.1" xmlns="http://www.w3.org/2000/svg" xmlns:xlink="http://www.w3.org/1999/xlink">
    <!-- Generator: Sketch 48.2 (47327) - http://www.bohemiancoding.com/sketch -->
    <title>logo3</title>
    <desc>Created with Sketch.</desc>
    <defs></defs>
    <g id="site-design" stroke="none" stroke-width="1" fill="none" fill-rule="evenodd">
        <g id="logo3">
            <g transform="translate(5.000000, 2.000000)">
                <polygon id="Triangle" fill="#8D92B4" points="123 1 123 3 119 3"></polygon>
                <path d="M126,1 L126,45.8894326 C125.659351,47.0487974 124.858136,47.6284798 123.596354,47.6284798 C122.334572,47.6284798 121.377332,47.0487974 120.724636,45.8894326 L98.2344995,5.04007612 C97.2961563,3.60098942 96.1894498,2.94135767 94.9143801,3.06118087 C93.6393105,3.18100407 92.8940383,3.84063582 92.6785638,5.04007612 L93.1518976,46.1710856 C92.9966667,47.1332105 92.2855415,47.7387052 91.018522,47.9875699 C89.7515025,48.2364345 88.7678089,47.6309397 88.0674411,46.1710856 L63.4296259,5.20395569 C62.6300719,3.64734017 61.4930373,2.9330819 60.018522,3.06118087 C58.5440067,3.18927984 57.8795789,4.02747731 58.0252384,5.57577329 L57.6270194,44.7584545 C57.6579945,45.6488652 57.455162,46.396047 57.018522,47 C56.581882,47.603953 56.0065298,47.9331429 55.2924653,47.9875699 L10.5460248,47.6284798 C8.98638608,47.6284798 8.01712639,47.1287023 7.63824573,46.1291473 C7.25936507,45.1295923 7.83004992,44.0352909 9.35030028,42.8462433 L47.2575461,7.28688766 C48.3725924,6.25261545 48.6744384,5.27418336 48.1630839,4.35159139 C47.6517294,3.42899942 46.6228895,2.99886258 45.0765641,3.06118087 L4,3.06118087" id="dark-bg" stroke="#8D92B4" stroke-width="6"></path>
                <polygon id="Triangle" fill="#8D92B4" points="93.0089168 0.434449314 97 3 88.465325 2.70876024"></polygon>
                <polygon id="Triangle" fill="#8D92B4" points="57.6586373 47.9963039 57.3945315 50.4795252 53.6908448 52.3226635"></polygon>
                <polygon id="Triangle" fill="#8D92B4" points="90.5435919 49 93.4514761 50.2963275 89.5641628 52.2419173"></polygon>
                <polygon id="Triangle" fill="#8D92B4" points="125.280821 47.9530122 126.431253 49.9234466 121.989272 52.1633067"></polygon>
                <polygon id="Triangle" fill="#8D92B4" points="57.6078531 0.684443819 61.534675 2.56555069 53.3478588 2.82483478"></polygon>
                <path d="M122,3 L122,47.8894326 C121.659351,49.0487974 120.858136,49.6284798 119.596354,49.6284798 C118.334572,49.6284798 117.377332,49.0487974 116.724636,47.8894326 L94.2344995,7.04007612 C93.2961563,5.60098942 92.1894498,4.94135767 90.9143801,5.06118087 C89.6393105,5.18100407 88.8940383,5.84063582 88.6785638,7.04007612 L89.1518976,48.1710856 C88.9966667,49.1332105 88.2855415,49.7387052 87.018522,49.9875699 C85.7515025,50.2364345 84.7678089,49.6309397 84.0674411,48.1710856 L59.4296259,7.20395569 C58.6300719,5.64734017 57.4930373,4.9330819 56.018522,5.06118087 C54.5440067,5.18927984 53.8795789,6.02747731 54.0252384,7.57577329 L53.6270194,46.7584545 C53.6579945,47.6488652 53.455162,48.396047 53.018522,49 C52.581882,49.603953 52.0065298,49.9331429 51.2924653,49.9875699 L6.5460248,49.6284798 C4.98638608,49.6284798 4.01712639,49.1287023 3.63824573,48.1291473 C3.25936507,47.1295923 3.83004992,46.0352909 5.35030028,44.8462433 L43.2575461,9.28688766 C44.3725924,8.25261545 44.6744384,7.27418336 44.1630839,6.35159139 C43.6517294,5.42899942 42.6228895,4.99886258 41.0765641,5.06118087 L0,5.06118087" id="front-wite" stroke="#FFFFFF" stroke-width="6"></path>
                <polygon id="Triangle" fill="#8D92B4" points="4 0 4 2 0 2"></polygon>
            </g>
        </g>
    </g>
</svg>